<?xml version="1.0" encoding="utf-8"?>
<!-- Generator: Adobe Illustrator 28.1.0, SVG Export Plug-In . SVG Version: 6.00 Build 0)  -->
<svg version="1.1" id="图层_1" xmlns="http://www.w3.org/2000/svg" xmlns:xlink="http://www.w3.org/1999/xlink" x="0px" y="0px"
	 viewBox="0 0 200 200" style="enable-background:new 0 0 200 200;" xml:space="preserve">
<style type="text/css">
	.st0{fill:#2D70F7;}
	.st1{fill:#FFE10B;}
</style>
<path class="st0" d="M100,68.5c-17.4,0-31.4,14.1-31.4,31.4s14.1,31.4,31.4,31.4s31.4-14.1,31.4-31.4S117.3,68.5,100,68.5z
	 M100,118.4c-10.2,0-18.4-8.2-18.4-18.4s8.2-18.4,18.4-18.4s18.4,8.2,18.4,18.4S110.1,118.4,100,118.4z"/>
<path class="st0" d="M89.1,100c0,6,4.9,10.9,10.9,10.9c6,0,10.9-4.9,10.9-10.9c0,0,0,0,0,0c0-6-4.9-10.9-10.9-10.9S89.1,94,89.1,100
	C89.1,100,89.1,100,89.1,100z"/>
<path class="st0" d="M183.1,0H16.9C7.6,0,0,7.6,0,16.9v166.2c0,9.4,7.6,16.9,16.9,16.9h166.2c9.4,0,16.9-7.6,16.9-16.9V16.9
	C200,7.6,192.4,0,183.1,0L183.1,0z M186.9,183.1c0,2.1-1.7,3.9-3.9,3.9H16.9c-2.1,0-3.9-1.7-3.9-3.9V16.9c0-2.1,1.7-3.9,3.9-3.9
	h166.2c2.1,0,3.9,1.7,3.9,3.9L186.9,183.1L186.9,183.1z"/>
<path class="st0" d="M174.1,32.3c0.6-2.6-1-5.2-3.6-5.9c-2.6-0.6-5.2,1-5.9,3.6L161,44.9c-15-16.7-36.8-27.2-61-27.2
	c-45.4,0-82.2,36.8-82.2,82.2s36.8,82.2,82.2,82.2s82.2-36.8,82.2-82.2c0-16.7-5-32.3-13.6-45.3L174.1,32.3L174.1,32.3z M168.7,99.8
	c-0.1,38-30.9,68.8-69,68.8s-68.8-30.9-68.8-69C31,72,47.6,47,73.1,36.3c8.5-3.6,17.7-5.4,26.9-5.4c23.8,0,44.7,12.1,57.1,30.5
	l-9,37.1l-13.5,13.7c-1.9,1.9-1.8,5,0,6.8c0.9,0.9,2.2,1.4,3.4,1.4c1.3,0,2.5-0.5,3.5-1.5l14.4-14.7c0.6-0.6,1-1.4,1.3-2.2l6.7-27.8
	C167,82.1,168.8,90.8,168.7,99.8z"/>
<path class="st1" d="M158.5,30c0,5.9,4.8,10.6,10.6,10.6c5.9,0,10.6-4.8,10.6-10.6c0,0,0,0,0,0c0-5.9-4.8-10.6-10.6-10.6
	C163.3,19.3,158.5,24.1,158.5,30C158.5,29.9,158.5,30,158.5,30z"/>
<rect x="4" y="200" class="st0" width="46" height="33"/>
<rect x="68.5" y="200" class="st0" width="42.3" height="33"/>
<rect x="131.4" y="200" class="st0" width="48.4" height="33"/>
<rect x="200" y="153" class="st0" width="36" height="43"/>
<rect x="200" y="89.1" class="st0" width="36" height="42.3"/>
<rect x="200" y="24" class="st0" width="36" height="44.5"/>
<rect x="145" y="-33" class="st0" width="48.4" height="33"/>
<rect x="89.1" y="-33" class="st0" width="42.3" height="33"/>
<rect x="22.5" y="-33" class="st0" width="46" height="33"/>
<rect x="-38" y="136.5" class="st0" width="38" height="43"/>
<rect x="-38" y="18.3" class="st0" width="38" height="44.5"/>
<rect x="-38" y="78.6" class="st0" width="38" height="42.3"/>
</svg>
